<?xml version="1.0" standalone="no"?>
<!DOCTYPE svg PUBLIC "-//W3C//DTD SVG 20010904//EN"
 "http://www.w3.org/TR/2001/REC-SVG-20010904/DTD/svg10.dtd">
<svg version="1.0" xmlns="http://www.w3.org/2000/svg"
 width="84.000000pt" height="67.000000pt" viewBox="0 0 84.000000 67.000000"
 preserveAspectRatio="xMidYMid meet">

<g transform="translate(0.000000,67.000000) scale(0.100000,-0.100000)"
fill="#000000" stroke="none">
<path d="M5 657 c-3 -7 -4 -154 -3 -327 l3 -315 150 0 150 0 0 60 0 60 -82 3
-83 3 0 64 0 65 58 0 c32 0 63 5 70 12 16 16 16 100 0 116 -7 7 -38 12 -70 12
l-58 0 0 60 0 59 83 3 82 3 3 59 c2 41 -1 62 -10 67 -22 15 -288 11 -293 -4z
m285 -57 l0 -50 -85 0 -85 0 0 -80 0 -80 65 0 65 0 0 -50 0 -50 -65 0 -65 0 0
-80 0 -80 69 0 c95 0 101 -3 101 -56 l0 -45 -137 3 -138 3 -3 308 -2 307 140
0 140 0 0 -50z"/>
<path d="M325 657 c-3 -7 -4 -154 -3 -327 l3 -315 62 -3 62 -3 3 138 3 138 36
-135 35 -135 70 0 69 0 3 322 2 323 -23 5 c-13 4 -41 5 -63 3 l-39 -3 -5 -104
-5 -103 -24 93 c-13 52 -28 100 -33 107 -14 17 -147 17 -153 -1z m182 -165
l41 -157 1 158 1 157 50 0 50 0 0 -310 0 -310 -54 0 c-64 0 -52 -23 -118 230
l-43 165 -3 -198 -2 -198 -48 3 -47 3 -3 308 -2 307 67 0 68 0 42 -158z"/>
<path d="M695 658 c-3 -7 -4 -155 -3 -328 l3 -315 68 -3 67 -3 -2 328 -3 328
-63 3 c-44 2 -64 -1 -67 -10z m115 -319 l0 -310 -52 3 -53 3 -3 308 -2 307 55
0 55 0 0 -311z"/>
</g>
</svg>
